<svg width="12" height="12" viewBox="0 0 12 12" fill="none" xmlns="http://www.w3.org/2000/svg">
<path d="M6.75 2.75C7.3 2.75 7.75 2.3 7.75 1.75C7.75 1.2 7.3 0.75 6.75 0.75C6.2 0.75 5.75 1.2 5.75 1.75C5.75 2.3 6.2 2.75 6.75 2.75ZM4.9 4.45L3.62 10.905C3.555 11.21 3.795 11.5 4.11 11.5H4.15C4.385 11.5 4.585 11.34 4.64 11.11L5.45 7.5L6.5 8.5V11C6.5 11.275 6.725 11.5 7 11.5C7.275 11.5 7.5 11.275 7.5 11V8.18C7.5 7.905 7.39 7.645 7.19 7.455L6.45 6.75L6.75 5.25C7.31346 5.89416 8.08482 6.32052 8.93 6.455C9.23 6.5 9.5 6.26 9.5 5.955C9.5 5.71 9.32 5.505 9.075 5.465C8.315 5.34 7.685 4.89 7.35 4.3L6.85 3.5C6.71497 3.28408 6.50751 3.12325 6.26475 3.0463C6.02199 2.96935 5.75976 2.9813 5.525 3.08L3.61 3.89C3.42886 3.96743 3.27446 4.09638 3.16601 4.26084C3.05756 4.4253 2.99983 4.618 3 4.815V6C3 6.275 3.225 6.5 3.5 6.5C3.775 6.5 4 6.275 4 6V4.8L4.9 4.45Z" fill="#2E2E2E"/>
</svg>
